<svg xmlns="http://www.w3.org/2000/svg" xmlns:xlink="http://www.w3.org/1999/xlink" width="128" height="128" viewBox="0 0 128 128">
    <defs>
        <linearGradient id="a" x1="89.077%" x2="-10.678%" y1="93.233%" y2="-6.072%">
            <stop offset="0%" stop-color="#32B756"/>
            <stop offset="100%" stop-color="#C6FF27"/>
        </linearGradient>
        <linearGradient id="b" x1="89.077%" x2="13.771%" y1="93.233%" y2="-3.356%">
            <stop offset="0%" stop-color="#36B952"/>
            <stop offset="100%" stop-color="#C6FF27" stop-opacity=".18"/>
        </linearGradient>
        <path id="c" d="M9.299 5.395C24.866 1.798 40.433 0 56 0v128l-40.216-19.499A28 28 0 0 1 0 83.307v-66.22A12 12 0 0 1 9.299 5.395z"/>
        <linearGradient id="d" x1="12.019%" y1="4.515%" y2="100%">
            <stop offset="0%" stop-color="#218608" stop-opacity=".377"/>
            <stop offset="100%"/>
        </linearGradient>
        <linearGradient id="e" x1="89.077%" x2="-10.678%" y1="93.233%" y2="-6.072%">
            <stop offset="0%" stop-color="#1AB068"/>
            <stop offset="100%" stop-color="#C6FF27" stop-opacity="0"/>
        </linearGradient>
        <linearGradient id="f" x1="50%" x2="93.015%" y1="0%" y2="95.516%">
            <stop offset="0%" stop-color="#7BD42D" stop-opacity="0"/>
            <stop offset="100%" stop-color="#3C9B0D"/>
        </linearGradient>
    </defs>
    <g fill="none" fill-rule="evenodd">
        <path fill="url(#a)" d="M9.299 5.395C24.866 1.798 40.433 0 56 0s31.134 1.798 46.701 5.395A12 12 0 0 1 112 17.087v66.19a28 28 0 0 1-15.822 25.214L56 127.897 15.822 108.49A28 28 0 0 1 0 83.278v-66.19A12 12 0 0 1 9.299 5.394z" transform="translate(8)"/>
        <path fill="#45A914" fill-rule="nonzero" d="M24 83.278a12 12 0 0 0 6.78 10.805L64 110.128l33.22-16.045A12 12 0 0 0 104 83.278V20.294C90.644 17.429 77.317 16 64 16s-26.644 1.43-40 4.294v62.984zM17.299 5.395C32.866 1.798 48.433 0 64 0s31.134 1.798 46.701 5.395A12 12 0 0 1 120 17.087v66.19a28 28 0 0 1-15.822 25.214L64 127.897 23.822 108.49A28 28 0 0 1 8 83.278v-66.19a12 12 0 0 1 9.299-11.693z"/>
        <g transform="translate(8)">
            <use fill="url(#b)" xlink:href="#c"/>
            <use fill="#FFF" fill-opacity=".236" xlink:href="#c"/>
        </g>
        <path fill="#000" fill-opacity=".1" d="M110.701 5.395C95.134 1.798 79.567 0 64 0v128l40.216-19.499A28 28 0 0 0 120 83.307v-66.22a12 12 0 0 0-9.299-11.692z"/>
        <path fill="url(#d)" d="M40.652 84H28l4.241-52H45.9l7.476 21.964 2.588 8.581h.144c.934-3.49 1.797-6.327 2.588-8.581L66.172 32h13.659L84 84H71.42l-1.582-23.418c-.215-2.327-.144-5.673-.072-7.418l.072-1.31h-.144c-1.15 3.637-2.084 6.546-2.875 8.728l-5.392 15.054H50.644l-5.391-15.054-2.876-8.727h-.143c.215 3.2.215 6.109 0 8.727L40.652 84z" transform="translate(8)"/>
        <path fill="url(#e)" d="M9.299 5.395C24.866 1.798 40.433 0 56 0s31.134 1.798 46.701 5.395A12 12 0 0 1 112 17.087v66.19a28 28 0 0 1-15.822 25.214L56 127.897 15.822 108.49A28 28 0 0 1 0 83.278v-66.19A12 12 0 0 1 9.299 5.394z" opacity=".78" transform="translate(8)"/>
        <path fill="url(#f)" fill-rule="nonzero" d="M56 125.676l39.308-18.986A26 26 0 0 0 110 83.278v-66.19a10 10 0 0 0-7.749-9.744C86.831 3.78 71.415 2 56 2S25.17 3.781 9.749 7.344A10 10 0 0 0 2 17.087v66.19a26 26 0 0 0 14.692 23.413L56 125.676zM9.299 5.396C24.866 1.797 40.433 0 56 0s31.134 1.798 46.701 5.395A12 12 0 0 1 112 17.087v66.19a28 28 0 0 1-15.822 25.214L56 127.897 15.822 108.49A28 28 0 0 1 0 83.278v-66.19A12 12 0 0 1 9.299 5.394z" transform="translate(8)"/>
    </g>
</svg>
